<?xml version="1.0" encoding="iso-8859-1"?>
<!-- Generator: Adobe Illustrator 19.0.0, SVG Export Plug-In . SVG Version: 6.00 Build 0)  -->
<svg version="1.1" id="Capa_1" xmlns="http://www.w3.org/2000/svg" xmlns:xlink="http://www.w3.org/1999/xlink" x="0px" y="0px"
	 viewBox="0 0 201.387 201.387" style="enable-background:new 0 0 201.387 201.387;" xml:space="preserve">
<rect x="3.413" y="35.84" style="fill:#83D816;" width="64.853" height="64.853"/>
<path d="M68.267,104.107H3.413c-1.884,0-3.413-1.529-3.413-3.413V35.84c0-1.884,1.529-3.413,3.413-3.413h64.853
	c1.884,0,3.413,1.529,3.413,3.413v64.853C71.68,102.577,70.151,104.107,68.267,104.107z M6.827,97.28h58.027V39.253H6.827V97.28z"/>
<rect x="68.267" y="35.84" style="fill:#83D816;" width="64.853" height="64.853"/>
<path d="M133.12,104.107H68.267c-1.884,0-3.413-1.529-3.413-3.413V35.84c0-1.884,1.529-3.413,3.413-3.413h64.853
	c1.884,0,3.413,1.529,3.413,3.413v64.853C136.533,102.577,135.004,104.107,133.12,104.107z M71.68,97.28h58.027V39.253H71.68V97.28z
	"/>
<rect x="68.267" y="100.693" style="fill:#83D816;" width="64.853" height="64.853"/>
<path d="M133.12,168.96H68.267c-1.884,0-3.413-1.529-3.413-3.413v-64.853c0-1.884,1.529-3.413,3.413-3.413h64.853
	c1.884,0,3.413,1.529,3.413,3.413v64.853C136.533,167.431,135.004,168.96,133.12,168.96z M71.68,162.133h58.027v-58.027H71.68
	V162.133z"/>
<rect x="133.12" y="100.693" style="fill:#83D816;" width="64.853" height="64.853"/>
<path d="M197.973,168.96H133.12c-1.884,0-3.413-1.529-3.413-3.413v-64.853c0-1.884,1.529-3.413,3.413-3.413h64.853
	c1.884,0,3.413,1.529,3.413,3.413v64.853C201.387,167.431,199.857,168.96,197.973,168.96z M136.533,162.133h58.027v-58.027h-58.027
	V162.133z"/>
<g>
</g>
<g>
</g>
<g>
</g>
<g>
</g>
<g>
</g>
<g>
</g>
<g>
</g>
<g>
</g>
<g>
</g>
<g>
</g>
<g>
</g>
<g>
</g>
<g>
</g>
<g>
</g>
<g>
</g>
</svg>
