<?xml version="1.0" encoding="iso-8859-1"?>
<!-- Generator: Adobe Illustrator 19.0.0, SVG Export Plug-In . SVG Version: 6.00 Build 0)  -->
<svg version="1.1" id="Capa_1" xmlns="http://www.w3.org/2000/svg" xmlns:xlink="http://www.w3.org/1999/xlink" x="0px" y="0px"
	 viewBox="0 0 136.533 136.533" style="enable-background:new 0 0 136.533 136.533;" xml:space="preserve">
<rect x="3.413" y="3.413" style="fill:#26BBEC;" width="64.853" height="64.853"/>
<path d="M68.267,71.68H3.413C1.529,71.68,0,70.151,0,68.267V3.413C0,1.529,1.529,0,3.413,0h64.853c1.884,0,3.413,1.529,3.413,3.413
	v64.853C71.68,70.151,70.151,71.68,68.267,71.68z M6.827,64.853h58.027V6.827H6.827V64.853z"/>
<rect x="68.267" y="3.413" style="fill:#26BBEC;" width="64.853" height="64.853"/>
<path d="M133.12,71.68H68.267c-1.884,0-3.413-1.529-3.413-3.413V3.413C64.853,1.529,66.382,0,68.267,0h64.853
	c1.884,0,3.413,1.529,3.413,3.413v64.853C136.533,70.151,135.004,71.68,133.12,71.68z M71.68,64.853h58.027V6.827H71.68V64.853z"/>
<rect x="3.413" y="68.267" style="fill:#26BBEC;" width="64.853" height="64.853"/>
<path d="M68.267,136.533H3.413c-1.884,0-3.413-1.529-3.413-3.413V68.267c0-1.884,1.529-3.413,3.413-3.413h64.853
	c1.884,0,3.413,1.529,3.413,3.413v64.853C71.68,135.004,70.151,136.533,68.267,136.533z M6.827,129.707h58.027V71.68H6.827V129.707z
	"/>
<rect x="68.267" y="68.267" style="fill:#26BBEC;" width="64.853" height="64.853"/>
<path d="M133.12,136.533H68.267c-1.884,0-3.413-1.529-3.413-3.413V68.267c0-1.884,1.529-3.413,3.413-3.413h64.853
	c1.884,0,3.413,1.529,3.413,3.413v64.853C136.533,135.004,135.004,136.533,133.12,136.533z M71.68,129.707h58.027V71.68H71.68
	V129.707z"/>
<g>
</g>
<g>
</g>
<g>
</g>
<g>
</g>
<g>
</g>
<g>
</g>
<g>
</g>
<g>
</g>
<g>
</g>
<g>
</g>
<g>
</g>
<g>
</g>
<g>
</g>
<g>
</g>
<g>
</g>
</svg>
